<?xml version="1.0" encoding="UTF-8" standalone="no"?>
<svg
   viewBox="0 0 1000 999.99072"
   fill="none"
   version="1.1"
   id="svg2"
   xmlns="http://www.w3.org/2000/svg"
   xmlns:svg="http://www.w3.org/2000/svg">
  <g
     clip-path="none"
     id="g2"
     transform="translate(-0.940002,-0.91)">
    <!-- Distinct chat bubble - rounder with simpler tail -->
    <path
       d="M 500,30 C 780,30 970,220 970,485 C 970,750 780,940 500,940 C 400,940 310,910 235,860 L 100,920 C 70,935 40,905 55,875 L 115,760 C 55,680 30,590 30,485 C 30,220 220,30 500,30 Z"
       fill="#2478FF"
       id="path1" />
    <!-- Network diagram - isometric cube (hexagon with Y inside) -->
    <!-- Outer hexagon edges -->
    <line x1="500" y1="185" x2="780" y2="345" stroke="#ffffff" stroke-width="13" stroke-linecap="round" />
    <line x1="780" y1="345" x2="780" y2="625" stroke="#ffffff" stroke-width="13" stroke-linecap="round" />
    <line x1="780" y1="625" x2="500" y2="785" stroke="#ffffff" stroke-width="13" stroke-linecap="round" />
    <line x1="500" y1="785" x2="220" y2="625" stroke="#ffffff" stroke-width="13" stroke-linecap="round" />
    <line x1="220" y1="625" x2="220" y2="345" stroke="#ffffff" stroke-width="13" stroke-linecap="round" />
    <line x1="220" y1="345" x2="500" y2="185" stroke="#ffffff" stroke-width="13" stroke-linecap="round" />
    <!-- Inner edges meeting at center -->
    <line x1="500" y1="485" x2="500" y2="185" stroke="#ffffff" stroke-width="13" stroke-linecap="round" />
    <line x1="500" y1="485" x2="220" y2="625" stroke="#ffffff" stroke-width="13" stroke-linecap="round" />
    <line x1="500" y1="485" x2="780" y2="625" stroke="#ffffff" stroke-width="13" stroke-linecap="round" />
    <line x1="500" y1="485" x2="220" y2="345" stroke="#ffffff" stroke-width="13" stroke-linecap="round" />
    <line x1="500" y1="485" x2="780" y2="345" stroke="#ffffff" stroke-width="13" stroke-linecap="round" />
    <line x1="500" y1="485" x2="500" y2="785" stroke="#ffffff" stroke-width="13" stroke-linecap="round" />
    <!-- Nodes at all 7 vertices (varied sizes) -->
    <circle cx="500" cy="485" r="50" fill="#ffffff" />
    <circle cx="500" cy="185" r="42" fill="#ffffff" />
    <circle cx="780" cy="345" r="38" fill="#ffffff" />
    <circle cx="780" cy="625" r="46" fill="#ffffff" />
    <circle cx="500" cy="785" r="40" fill="#ffffff" />
    <circle cx="220" cy="625" r="44" fill="#ffffff" />
    <circle cx="220" cy="345" r="36" fill="#ffffff" />
  </g>
  <defs
     id="defs2" />
</svg>
